<svg xmlns="http://www.w3.org/2000/svg" viewBox="0 0 1280 640" width="1280" height="640">
  <defs>
    <linearGradient id="bg-grad" x1="0%" y1="0%" x2="100%" y2="100%">
      <stop offset="0%" stop-color="#090d16"/>
      <stop offset="50%" stop-color="#0f172a"/>
      <stop offset="100%" stop-color="#050811"/>
    </linearGradient>

    <filter id="glow" x="-20%" y="-20%" width="140%" height="140%">
      <feGaussianBlur stdDeviation="12" result="blur"/>
      <feComposite in="SourceGraphic" in2="blur" operator="over"/>
    </filter>
  </defs>

  <rect width="1280" height="640" fill="url(#bg-grad)"/>

  <g opacity="0.07" stroke="#94a3b8" stroke-width="1">
    <path d="M 0 80 L 1280 80 M 0 160 L 1280 160 M 0 240 L 1280 240 M 0 320 L 1280 320 M 0 400 L 1280 400 M 0 480 L 1280 480 M 0 560 L 1280 560"/>
    <path d="M 160 0 L 160 640 M 320 0 L 320 640 M 480 0 L 480 640 M 640 0 L 640 640 M 800 0 L 800 640 M 960 0 L 960 640 M 1120 0 L 1120 640"/>
  </g>

  <circle cx="200" cy="150" r="180" fill="#6366f1" opacity="0.12" filter="url(#glow)"/>
  <circle cx="1080" cy="480" r="220" fill="#06b6d4" opacity="0.09" filter="url(#glow)"/>

  <rect x="24" y="24" width="1232" height="592" rx="16" fill="none" stroke="#334155" stroke-width="1.5" opacity="0.6"/>

  <g transform="translate(80, 84)">
    <rect width="210" height="34" rx="17" fill="#1e1b4b" stroke="#6366f1" stroke-width="1" opacity="0.9"/>
    <circle cx="20" cy="17" r="5" fill="#10b981"/>
    <text x="34" y="22" font-family="Inter, ui-sans-serif, system-ui, -apple-system, sans-serif" font-size="13" font-weight="600" fill="#a5b4fc" letter-spacing="0.5">RELEASE v4.2.0</text>
  </g>

  <text x="80" y="195" font-family="Inter, ui-sans-serif, system-ui, -apple-system, sans-serif" font-size="56" font-weight="800" fill="#ffffff" letter-spacing="-1">MultiModel Dev OS</text>

  <text x="80" y="242" font-family="Inter, ui-sans-serif, system-ui, -apple-system, sans-serif" font-size="20" font-weight="400" fill="#94a3b8">
    <tspan x="80" dy="0">Governed workspace, Skill OS, and localhost gateway</tspan>
    <tspan x="80" dy="28">foundations for multi-agent development.</tspan>
  </text>

  <g transform="translate(80, 320)">
    <g transform="translate(0, 0)">
      <rect width="260" height="64" rx="10" fill="#0f172a" stroke="#334155" stroke-width="1"/>
      <rect x="1" y="1" width="4" height="62" rx="2" fill="#6366f1"/>
      <text x="20" y="28" font-family="Inter, ui-sans-serif, system-ui, sans-serif" font-size="14" font-weight="700" fill="#f8fafc">Governed Workspace</text>
      <text x="20" y="48" font-family="Inter, ui-sans-serif, system-ui, sans-serif" font-size="12" font-weight="400" fill="#64748b">Zero-dep contract enforcement</text>
    </g>
    <g transform="translate(280, 0)">
      <rect width="260" height="64" rx="10" fill="#0f172a" stroke="#334155" stroke-width="1"/>
      <rect x="1" y="1" width="4" height="62" rx="2" fill="#06b6d4"/>
      <text x="20" y="28" font-family="Inter, ui-sans-serif, system-ui, sans-serif" font-size="14" font-weight="700" fill="#f8fafc">Declarative Skill OS</text>
      <text x="20" y="48" font-family="Inter, ui-sans-serif, system-ui, sans-serif" font-size="12" font-weight="400" fill="#64748b">Validation-first agent skills</text>
    </g>
    <g transform="translate(0, 80)">
      <rect width="260" height="64" rx="10" fill="#0f172a" stroke="#334155" stroke-width="1"/>
      <rect x="1" y="1" width="4" height="62" rx="2" fill="#10b981"/>
      <text x="20" y="28" font-family="Inter, ui-sans-serif, system-ui, sans-serif" font-size="14" font-weight="700" fill="#f8fafc">Localhost Gateway</text>
      <text x="20" y="48" font-family="Inter, ui-sans-serif, system-ui, sans-serif" font-size="12" font-weight="400" fill="#64748b">Mock runtime &amp; client preview</text>
    </g>
    <g transform="translate(280, 80)">
      <rect width="260" height="64" rx="10" fill="#0f172a" stroke="#334155" stroke-width="1"/>
      <rect x="1" y="1" width="4" height="62" rx="2" fill="#8b5cf6"/>
      <text x="20" y="28" font-family="Inter, ui-sans-serif, system-ui, sans-serif" font-size="14" font-weight="700" fill="#f8fafc">Bounded &amp; Redacted</text>
      <text x="20" y="48" font-family="Inter, ui-sans-serif, system-ui, sans-serif" font-size="12" font-weight="400" fill="#64748b">In-memory local observability</text>
    </g>
  </g>

  <g transform="translate(80, 500)">
    <rect width="540" height="48" rx="8" fill="#020617" stroke="#1e293b" stroke-width="1"/>
    <text x="20" y="29" font-family="Consolas, Monaco, 'Courier New', monospace" font-size="14" fill="#38bdf8">$ npx multimodel-dev-os init</text>
    <text x="320" y="29" font-family="Inter, ui-sans-serif, system-ui, sans-serif" font-size="12" fill="#64748b">Node.js 20+ | Zero Runtime Deps</text>
  </g>

  <g transform="translate(680, 90)">
    <rect width="520" height="460" rx="16" fill="#0b1329" stroke="#1e293b" stroke-width="1.5"/>
    <rect width="520" height="40" rx="16" fill="#0f172a"/>
    <circle cx="24" cy="20" r="5" fill="#ef4444"/>
    <circle cx="40" cy="20" r="5" fill="#f59e0b"/>
    <circle cx="56" cy="20" r="5" fill="#10b981"/>
    <text x="80" y="24" font-family="Inter, ui-sans-serif, system-ui, sans-serif" font-size="12" font-weight="600" fill="#64748b">ARCHITECTURE OVERVIEW — CONTROL &amp; GATEWAY</text>

    <g transform="translate(30, 70)">
      <rect width="460" height="70" rx="10" fill="#1e293b" stroke="#334155" stroke-width="1"/>
      <text x="20" y="28" font-family="Inter, ui-sans-serif, system-ui, sans-serif" font-size="13" font-weight="700" fill="#cbd5e1">MULTI-AGENT ADAPTERS</text>
      <text x="20" y="50" font-family="Inter, ui-sans-serif, system-ui, sans-serif" font-size="12" fill="#818cf8">Antigravity  •  Claude Code  •  Cursor  •  Codex  •  Gemini</text>
    </g>

    <path d="M 260 140 L 260 170" stroke="#6366f1" stroke-width="2" stroke-dasharray="4 3"/>
    <polygon points="260,175 255,165 265,165" fill="#6366f1"/>

    <g transform="translate(30, 180)">
      <rect width="460" height="80" rx="10" fill="#1e1b4b" stroke="#6366f1" stroke-width="1.5"/>
      <text x="20" y="30" font-family="Inter, ui-sans-serif, system-ui, sans-serif" font-size="14" font-weight="700" fill="#ffffff">SKILL OS &amp; TRUSTED REGISTRY</text>
      <text x="20" y="52" font-family="Inter, ui-sans-serif, system-ui, sans-serif" font-size="12" fill="#a5b4fc">Validation engine  •  Policy checks  •  Ed25519 signatures</text>
      <rect x="360" y="24" width="80" height="24" rx="4" fill="#312e81"/>
      <text x="372" y="40" font-family="Inter, ui-sans-serif, system-ui, sans-serif" font-size="11" font-weight="600" fill="#818cf8">GOVERNED</text>
    </g>

    <path d="M 260 260 L 260 290" stroke="#06b6d4" stroke-width="2" stroke-dasharray="4 3"/>
    <polygon points="260,295 255,285 265,285" fill="#06b6d4"/>

    <g transform="translate(30, 300)">
      <rect width="460" height="80" rx="10" fill="#064e3b" stroke="#10b981" stroke-width="1.5"/>
      <text x="20" y="30" font-family="Inter, ui-sans-serif, system-ui, sans-serif" font-size="14" font-weight="700" fill="#ffffff">LOCALHOST GATEWAY FOUNDATION</text>
      <text x="20" y="52" font-family="Inter, ui-sans-serif, system-ui, sans-serif" font-size="12" fill="#6ee7b7">Mock Provider Runtime  •  Client Preview Configs  •  Local Logs</text>
      <rect x="360" y="24" width="80" height="24" rx="4" fill="#065f46"/>
      <text x="370" y="40" font-family="Inter, ui-sans-serif, system-ui, sans-serif" font-size="11" font-weight="600" fill="#34d399">127.0.0.1</text>
    </g>

    <text x="260" y="425" font-family="Inter, ui-sans-serif, system-ui, sans-serif" font-size="12" fill="#64748b" text-anchor="middle">Zero External Retries  •  Zero Remote Telemetry  •  MIT License</text>
  </g>
</svg>
